<mxfile host="app.diagrams.net" modified="2024-03-22T18:19:52.002Z" agent="Mozilla/5.0 (Macintosh; Intel Mac OS X 10_15_7) AppleWebKit/537.36 (KHTML, like Gecko) Chrome/123.0.0.0 Safari/537.36" etag="7isly4qPYg88U58_INnq" version="24.0.7" type="github">
  <diagram name="Page-1" id="rygwS8VyxAOfs3rbuVMZ">
    <mxGraphModel dx="2641" dy="1003" grid="1" gridSize="10" guides="1" tooltips="1" connect="1" arrows="1" fold="1" page="1" pageScale="1" pageWidth="850" pageHeight="1100" math="0" shadow="0">
      <root>
        <mxCell id="0" />
        <mxCell id="1" parent="0" />
        <mxCell id="D8cfFL2hckd1D-f0yYhA-26" value="" style="rounded=0;whiteSpace=wrap;html=1;dashed=1;fillColor=#d5e8d4;strokeColor=#82b366;" vertex="1" parent="1">
          <mxGeometry x="370" y="823" width="870" height="130" as="geometry" />
        </mxCell>
        <mxCell id="D8cfFL2hckd1D-f0yYhA-3" style="edgeStyle=orthogonalEdgeStyle;rounded=0;orthogonalLoop=1;jettySize=auto;html=1;entryX=0.5;entryY=0;entryDx=0;entryDy=0;strokeWidth=2;fillColor=#d5e8d4;strokeColor=#82b366;" edge="1" parent="1" source="D8cfFL2hckd1D-f0yYhA-2" target="84Uw6vzV4NWcDb3TtWeP-11">
          <mxGeometry relative="1" as="geometry" />
        </mxCell>
        <mxCell id="D8cfFL2hckd1D-f0yYhA-2" value="" style="rounded=0;whiteSpace=wrap;html=1;dashed=1;fillColor=#dae8fc;strokeColor=#6c8ebf;" vertex="1" parent="1">
          <mxGeometry x="370" y="355.5" width="380" height="115" as="geometry" />
        </mxCell>
        <mxCell id="D8cfFL2hckd1D-f0yYhA-4" style="edgeStyle=orthogonalEdgeStyle;rounded=0;orthogonalLoop=1;jettySize=auto;html=1;entryX=0.5;entryY=0;entryDx=0;entryDy=0;strokeWidth=2;fillColor=#d5e8d4;strokeColor=#82b366;" edge="1" parent="1" source="D8cfFL2hckd1D-f0yYhA-1" target="84Uw6vzV4NWcDb3TtWeP-11">
          <mxGeometry relative="1" as="geometry" />
        </mxCell>
        <mxCell id="D8cfFL2hckd1D-f0yYhA-1" value="" style="rounded=0;whiteSpace=wrap;html=1;dashed=1;fillColor=#d5e8d4;strokeColor=#82b366;" vertex="1" parent="1">
          <mxGeometry x="780" y="355.5" width="460" height="115" as="geometry" />
        </mxCell>
        <mxCell id="84Uw6vzV4NWcDb3TtWeP-11" value="" style="rounded=0;whiteSpace=wrap;html=1;strokeColor=#666666;dashed=1;fillColor=#f5f5f5;fontColor=#333333;" parent="1" vertex="1">
          <mxGeometry x="370" y="573" width="870" height="180" as="geometry" />
        </mxCell>
        <mxCell id="D8cfFL2hckd1D-f0yYhA-13" style="edgeStyle=orthogonalEdgeStyle;rounded=0;orthogonalLoop=1;jettySize=auto;html=1;entryX=0.25;entryY=0;entryDx=0;entryDy=0;strokeWidth=2;fillColor=#dae8fc;strokeColor=#6c8ebf;" edge="1" parent="1" source="84Uw6vzV4NWcDb3TtWeP-1" target="D8cfFL2hckd1D-f0yYhA-2">
          <mxGeometry relative="1" as="geometry" />
        </mxCell>
        <mxCell id="84Uw6vzV4NWcDb3TtWeP-1" value="Service Owner" style="shape=umlActor;verticalLabelPosition=bottom;verticalAlign=top;html=1;outlineConnect=0;fillColor=#dae8fc;strokeColor=#6c8ebf;" parent="1" vertex="1">
          <mxGeometry x="450" y="180" width="30" height="60" as="geometry" />
        </mxCell>
        <mxCell id="84Uw6vzV4NWcDb3TtWeP-3" value="Kafka Cluster A" style="rounded=1;whiteSpace=wrap;html=1;" parent="1" vertex="1">
          <mxGeometry x="430" y="643" width="120" height="60" as="geometry" />
        </mxCell>
        <mxCell id="84Uw6vzV4NWcDb3TtWeP-4" value="Kafka Cluster B" style="rounded=1;whiteSpace=wrap;html=1;" parent="1" vertex="1">
          <mxGeometry x="640" y="643" width="120" height="60" as="geometry" />
        </mxCell>
        <mxCell id="84Uw6vzV4NWcDb3TtWeP-5" value="Kafka Cluster N" style="rounded=1;whiteSpace=wrap;html=1;" parent="1" vertex="1">
          <mxGeometry x="1060" y="643" width="120" height="60" as="geometry" />
        </mxCell>
        <mxCell id="84Uw6vzV4NWcDb3TtWeP-6" value="ZKAS&amp;nbsp;&lt;div&gt;Console&lt;/div&gt;" style="rounded=1;whiteSpace=wrap;html=1;" parent="1" vertex="1">
          <mxGeometry x="420" y="393" width="120" height="60" as="geometry" />
        </mxCell>
        <mxCell id="84Uw6vzV4NWcDb3TtWeP-7" value="ZKAS&amp;nbsp;&lt;div&gt;Capacity Manager&lt;/div&gt;" style="rounded=1;whiteSpace=wrap;html=1;" parent="1" vertex="1">
          <mxGeometry x="830" y="393" width="120" height="60" as="geometry" />
        </mxCell>
        <mxCell id="84Uw6vzV4NWcDb3TtWeP-8" value="ZKAS&amp;nbsp;&lt;div&gt;Topics&amp;nbsp;&lt;span style=&quot;background-color: initial;&quot;&gt;Recycler&lt;/span&gt;&lt;/div&gt;" style="rounded=1;whiteSpace=wrap;html=1;" parent="1" vertex="1">
          <mxGeometry x="1080" y="393" width="120" height="60" as="geometry" />
        </mxCell>
        <mxCell id="84Uw6vzV4NWcDb3TtWeP-9" value="ZKAS&amp;nbsp;&lt;div&gt;Observability&lt;/div&gt;" style="rounded=1;whiteSpace=wrap;html=1;" parent="1" vertex="1">
          <mxGeometry x="580" y="393" width="120" height="60" as="geometry" />
        </mxCell>
        <mxCell id="84Uw6vzV4NWcDb3TtWeP-10" value="" style="endArrow=classic;html=1;rounded=0;dashed=1;" parent="1" edge="1">
          <mxGeometry width="50" height="50" relative="1" as="geometry">
            <mxPoint x="860" y="662.5" as="sourcePoint" />
            <mxPoint x="970" y="662.5" as="targetPoint" />
          </mxGeometry>
        </mxCell>
        <mxCell id="D8cfFL2hckd1D-f0yYhA-12" style="edgeStyle=orthogonalEdgeStyle;rounded=0;orthogonalLoop=1;jettySize=auto;html=1;entryX=0.5;entryY=0;entryDx=0;entryDy=0;strokeWidth=2;fillColor=#d5e8d4;strokeColor=#82b366;" edge="1" parent="1" source="84Uw6vzV4NWcDb3TtWeP-12" target="D8cfFL2hckd1D-f0yYhA-1">
          <mxGeometry relative="1" as="geometry">
            <Array as="points">
              <mxPoint x="745" y="293" />
              <mxPoint x="1010" y="293" />
            </Array>
          </mxGeometry>
        </mxCell>
        <mxCell id="D8cfFL2hckd1D-f0yYhA-14" style="edgeStyle=orthogonalEdgeStyle;rounded=0;orthogonalLoop=1;jettySize=auto;html=1;entryX=0.75;entryY=0;entryDx=0;entryDy=0;strokeWidth=2;fillColor=#d5e8d4;strokeColor=#82b366;" edge="1" parent="1" source="84Uw6vzV4NWcDb3TtWeP-12" target="D8cfFL2hckd1D-f0yYhA-2">
          <mxGeometry relative="1" as="geometry">
            <Array as="points">
              <mxPoint x="745" y="293" />
              <mxPoint x="655" y="293" />
            </Array>
          </mxGeometry>
        </mxCell>
        <mxCell id="84Uw6vzV4NWcDb3TtWeP-12" value="ZKAS Owner" style="shape=umlActor;verticalLabelPosition=bottom;verticalAlign=top;html=1;outlineConnect=0;fillColor=#d5e8d4;strokeColor=#82b366;" parent="1" vertex="1">
          <mxGeometry x="730" y="180" width="30" height="60" as="geometry" />
        </mxCell>
        <mxCell id="D8cfFL2hckd1D-f0yYhA-16" value="" style="endArrow=classic;html=1;rounded=0;dashed=1;" edge="1" parent="1">
          <mxGeometry width="50" height="50" relative="1" as="geometry">
            <mxPoint x="990" y="422" as="sourcePoint" />
            <mxPoint x="1050" y="422" as="targetPoint" />
          </mxGeometry>
        </mxCell>
        <mxCell id="D8cfFL2hckd1D-f0yYhA-17" value="" style="sketch=0;pointerEvents=1;shadow=0;dashed=0;html=1;strokeColor=none;fillColor=#434445;aspect=fixed;labelPosition=center;verticalLabelPosition=bottom;verticalAlign=top;align=center;outlineConnect=0;shape=mxgraph.vvd.on_demand_self_service;" vertex="1" parent="1">
          <mxGeometry x="350" y="333" width="50" height="42.5" as="geometry" />
        </mxCell>
        <mxCell id="D8cfFL2hckd1D-f0yYhA-18" value="On-Demand Self Service" style="text;html=1;align=center;verticalAlign=middle;resizable=0;points=[];autosize=1;strokeColor=none;fillColor=none;fontSize=13;fontStyle=1" vertex="1" parent="1">
          <mxGeometry x="465" y="355.5" width="170" height="30" as="geometry" />
        </mxCell>
        <mxCell id="D8cfFL2hckd1D-f0yYhA-19" value="ZKAS Admin DevOps Box/Tools/Monitor" style="text;html=1;align=center;verticalAlign=middle;resizable=0;points=[];autosize=1;strokeColor=none;fillColor=none;fontSize=13;fontStyle=1" vertex="1" parent="1">
          <mxGeometry x="890" y="363" width="250" height="30" as="geometry" />
        </mxCell>
        <mxCell id="D8cfFL2hckd1D-f0yYhA-20" value="On-Demand ZUORA Kafka As Service" style="text;html=1;align=center;verticalAlign=middle;resizable=0;points=[];autosize=1;strokeColor=none;fillColor=none;fontSize=13;fontStyle=1" vertex="1" parent="1">
          <mxGeometry x="685" y="593" width="240" height="30" as="geometry" />
        </mxCell>
        <mxCell id="D8cfFL2hckd1D-f0yYhA-21" value="" style="sketch=0;points=[[0,0,0],[0.25,0,0],[0.5,0,0],[0.75,0,0],[1,0,0],[0,1,0],[0.25,1,0],[0.5,1,0],[0.75,1,0],[1,1,0],[0,0.25,0],[0,0.5,0],[0,0.75,0],[1,0.25,0],[1,0.5,0],[1,0.75,0]];outlineConnect=0;fontColor=#232F3E;fillColor=#01A88D;strokeColor=#ffffff;dashed=0;verticalLabelPosition=bottom;verticalAlign=top;align=center;html=1;fontSize=12;fontStyle=0;aspect=fixed;shape=mxgraph.aws4.resourceIcon;resIcon=mxgraph.aws4.devops_guru;" vertex="1" parent="1">
          <mxGeometry x="760" y="329.25" width="42" height="42" as="geometry" />
        </mxCell>
        <mxCell id="D8cfFL2hckd1D-f0yYhA-22" value="Real-time Cost&lt;br&gt;Analyzer" style="rounded=1;whiteSpace=wrap;html=1;" vertex="1" parent="1">
          <mxGeometry x="430" y="873" width="120" height="60" as="geometry" />
        </mxCell>
        <mxCell id="D8cfFL2hckd1D-f0yYhA-23" value="Real-time Capacity&lt;br&gt;Analyzer" style="rounded=1;whiteSpace=wrap;html=1;" vertex="1" parent="1">
          <mxGeometry x="640" y="873" width="120" height="60" as="geometry" />
        </mxCell>
        <mxCell id="D8cfFL2hckd1D-f0yYhA-24" value="Realtime Fraud&lt;br&gt;Detector" style="rounded=1;whiteSpace=wrap;html=1;" vertex="1" parent="1">
          <mxGeometry x="1080" y="873" width="120" height="60" as="geometry" />
        </mxCell>
        <mxCell id="D8cfFL2hckd1D-f0yYhA-25" value="Real-time Observability" style="rounded=1;whiteSpace=wrap;html=1;" vertex="1" parent="1">
          <mxGeometry x="860" y="873" width="120" height="60" as="geometry" />
        </mxCell>
        <mxCell id="D8cfFL2hckd1D-f0yYhA-28" value="" style="shape=flexArrow;endArrow=classic;html=1;rounded=0;" edge="1" parent="1">
          <mxGeometry width="50" height="50" relative="1" as="geometry">
            <mxPoint x="559.5" y="763" as="sourcePoint" />
            <mxPoint x="559.5" y="813" as="targetPoint" />
          </mxGeometry>
        </mxCell>
        <mxCell id="D8cfFL2hckd1D-f0yYhA-30" value="" style="shape=flexArrow;endArrow=classic;html=1;rounded=0;" edge="1" parent="1">
          <mxGeometry width="50" height="50" relative="1" as="geometry">
            <mxPoint x="804.5" y="763" as="sourcePoint" />
            <mxPoint x="804.5" y="813" as="targetPoint" />
          </mxGeometry>
        </mxCell>
        <mxCell id="D8cfFL2hckd1D-f0yYhA-31" value="" style="shape=flexArrow;endArrow=classic;html=1;rounded=0;" edge="1" parent="1">
          <mxGeometry width="50" height="50" relative="1" as="geometry">
            <mxPoint x="1030" y="763" as="sourcePoint" />
            <mxPoint x="1030" y="813" as="targetPoint" />
          </mxGeometry>
        </mxCell>
        <mxCell id="D8cfFL2hckd1D-f0yYhA-32" value="ZAKS Realtime Analyzer/Daemon" style="text;html=1;align=center;verticalAlign=middle;resizable=0;points=[];autosize=1;strokeColor=none;fillColor=none;fontSize=13;fontStyle=1" vertex="1" parent="1">
          <mxGeometry x="420" y="833" width="220" height="30" as="geometry" />
        </mxCell>
      </root>
    </mxGraphModel>
  </diagram>
</mxfile>
